<mxfile host="app.diagrams.net" modified="2020-11-13T21:41:40.718Z" agent="5.0 (Windows NT 10.0; WOW64) AppleWebKit/537.36 (KHTML, like Gecko) Chrome/86.0.4240.198 Safari/537.36" etag="dpSFZ0lxlaKJoa65HcMp" version="13.9.7" type="github">
  <diagram id="4UGJytVWH1Cr-C3hoVij" name="Page-1">
    <mxGraphModel dx="868" dy="1619" grid="1" gridSize="10" guides="1" tooltips="1" connect="1" arrows="1" fold="1" page="1" pageScale="1" pageWidth="827" pageHeight="1169" math="0" shadow="0">
      <root>
        <mxCell id="0" />
        <mxCell id="1" parent="0" />
        <mxCell id="ItGvCnHqwmwOMa5XZKfp-4" value="&lt;p style=&quot;margin-top: 12.0pt ; margin-right: 0cm ; margin-bottom: 12.0pt ; margin-left: 36.0pt ; text-align: justify ; text-indent: -18.0pt ; background: white&quot;&gt;&lt;b&gt;&lt;span style=&quot;font-size: 16.0pt ; font-family: &amp;#34;calibri&amp;#34; , &amp;#34;sans-serif&amp;#34;&quot;&gt;&lt;span style=&quot;font-weight: normal ; font-stretch: normal ; font-size: 7pt ; line-height: normal ; font-family: &amp;#34;times new roman&amp;#34;&quot;&gt;&amp;nbsp; &amp;nbsp;&lt;br&gt;&lt;/span&gt;&lt;/span&gt;&lt;/b&gt;&lt;span dir=&quot;LTR&quot;&gt;&lt;/span&gt;&lt;b&gt;&lt;span style=&quot;font-size: 16.0pt ; font-family: &amp;#34;calibri&amp;#34; , &amp;#34;sans-serif&amp;#34;&quot;&gt;2.Guests should be able to search the room inventory and book any available room.&lt;/span&gt;&lt;/b&gt;&lt;/p&gt;" style="text;html=1;strokeColor=none;fillColor=none;align=center;verticalAlign=middle;whiteSpace=wrap;rounded=0;" parent="1" vertex="1">
          <mxGeometry x="200" y="-220" width="640" height="190" as="geometry" />
        </mxCell>
        <mxCell id="ItGvCnHqwmwOMa5XZKfp-5" value="" style="whiteSpace=wrap;html=1;aspect=fixed;" parent="1" vertex="1">
          <mxGeometry x="223.75" width="630" height="630" as="geometry" />
        </mxCell>
        <mxCell id="ItGvCnHqwmwOMa5XZKfp-11" value="" style="ellipse;whiteSpace=wrap;html=1;aspect=fixed;" parent="1" vertex="1">
          <mxGeometry x="310" y="80" width="90" height="90" as="geometry" />
        </mxCell>
        <mxCell id="ItGvCnHqwmwOMa5XZKfp-12" value="U1:View rooms" style="text;html=1;strokeColor=none;fillColor=none;align=center;verticalAlign=middle;whiteSpace=wrap;rounded=0;" parent="1" vertex="1">
          <mxGeometry x="322.5" y="110" width="65" height="25" as="geometry" />
        </mxCell>
        <mxCell id="ItGvCnHqwmwOMa5XZKfp-13" value="" style="ellipse;whiteSpace=wrap;html=1;aspect=fixed;" parent="1" vertex="1">
          <mxGeometry x="263.75" y="195" width="90" height="90" as="geometry" />
        </mxCell>
        <mxCell id="ItGvCnHqwmwOMa5XZKfp-14" value="U2:Search rooms" style="text;html=1;strokeColor=none;fillColor=none;align=center;verticalAlign=middle;whiteSpace=wrap;rounded=0;" parent="1" vertex="1">
          <mxGeometry x="270" y="232.5" width="77.5" height="25" as="geometry" />
        </mxCell>
        <mxCell id="ItGvCnHqwmwOMa5XZKfp-17" value="" style="ellipse;whiteSpace=wrap;html=1;aspect=fixed;" parent="1" vertex="1">
          <mxGeometry x="390" y="195" width="95" height="95" as="geometry" />
        </mxCell>
        <mxCell id="ItGvCnHqwmwOMa5XZKfp-18" value="U3:Filter rooms" style="text;html=1;strokeColor=none;fillColor=none;align=center;verticalAlign=middle;whiteSpace=wrap;rounded=0;" parent="1" vertex="1">
          <mxGeometry x="398.75" y="227.5" width="77.5" height="25" as="geometry" />
        </mxCell>
        <mxCell id="ItGvCnHqwmwOMa5XZKfp-22" value="Booker" style="text;html=1;align=center;verticalAlign=middle;resizable=0;points=[];autosize=1;" parent="1" vertex="1">
          <mxGeometry x="116.25" y="400.01" width="50" height="20" as="geometry" />
        </mxCell>
        <mxCell id="ItGvCnHqwmwOMa5XZKfp-27" value="" style="endArrow=none;html=1;entryX=0;entryY=1;entryDx=0;entryDy=0;" parent="1" target="ItGvCnHqwmwOMa5XZKfp-11" edge="1">
          <mxGeometry width="50" height="50" relative="1" as="geometry">
            <mxPoint x="170" y="155.71428571428578" as="sourcePoint" />
            <mxPoint x="200" y="123.75" as="targetPoint" />
            <Array as="points">
              <mxPoint x="200" y="156.25" />
            </Array>
          </mxGeometry>
        </mxCell>
        <mxCell id="ItGvCnHqwmwOMa5XZKfp-28" value="" style="endArrow=none;html=1;" parent="1" target="ItGvCnHqwmwOMa5XZKfp-13" edge="1">
          <mxGeometry width="50" height="50" relative="1" as="geometry">
            <mxPoint x="170" y="160.625" as="sourcePoint" />
            <mxPoint x="333.1801948466052" y="166.81980515339478" as="targetPoint" />
            <Array as="points">
              <mxPoint x="210" y="166.25" />
            </Array>
          </mxGeometry>
        </mxCell>
        <mxCell id="ItGvCnHqwmwOMa5XZKfp-32" value="" style="ellipse;whiteSpace=wrap;html=1;aspect=fixed;" parent="1" vertex="1">
          <mxGeometry x="257.5" y="330.01" width="90" height="90" as="geometry" />
        </mxCell>
        <mxCell id="ItGvCnHqwmwOMa5XZKfp-33" value="" style="endArrow=none;html=1;exitX=0.981;exitY=0.4;exitDx=0;exitDy=0;exitPerimeter=0;entryX=0.05;entryY=0.744;entryDx=0;entryDy=0;entryPerimeter=0;" parent="1" target="ItGvCnHqwmwOMa5XZKfp-32" edge="1">
          <mxGeometry width="50" height="50" relative="1" as="geometry">
            <mxPoint x="159.99999999999997" y="346.72" as="sourcePoint" />
            <mxPoint x="247.9717240530001" y="344.2752950210445" as="targetPoint" />
            <Array as="points" />
          </mxGeometry>
        </mxCell>
        <mxCell id="ItGvCnHqwmwOMa5XZKfp-34" value="U5:Book room" style="text;html=1;strokeColor=none;fillColor=none;align=center;verticalAlign=middle;whiteSpace=wrap;rounded=0;" parent="1" vertex="1">
          <mxGeometry x="260" y="356.49" width="87.5" height="25" as="geometry" />
        </mxCell>
        <mxCell id="ItGvCnHqwmwOMa5XZKfp-35" value="" style="ellipse;whiteSpace=wrap;html=1;aspect=fixed;" parent="1" vertex="1">
          <mxGeometry x="383.25" y="330.01" width="90" height="90" as="geometry" />
        </mxCell>
        <mxCell id="ItGvCnHqwmwOMa5XZKfp-36" value="U6: check availability" style="text;html=1;strokeColor=none;fillColor=none;align=center;verticalAlign=middle;whiteSpace=wrap;rounded=0;" parent="1" vertex="1">
          <mxGeometry x="386.25" y="352.5" width="77.5" height="25" as="geometry" />
        </mxCell>
        <mxCell id="ItGvCnHqwmwOMa5XZKfp-37" value="" style="ellipse;whiteSpace=wrap;html=1;aspect=fixed;" parent="1" vertex="1">
          <mxGeometry x="500" y="330.01" width="90" height="90" as="geometry" />
        </mxCell>
        <mxCell id="ItGvCnHqwmwOMa5XZKfp-38" value="U7:Confirm" style="text;html=1;strokeColor=none;fillColor=none;align=center;verticalAlign=middle;whiteSpace=wrap;rounded=0;" parent="1" vertex="1">
          <mxGeometry x="506.25" y="356.49" width="77.5" height="25" as="geometry" />
        </mxCell>
        <mxCell id="ItGvCnHqwmwOMa5XZKfp-39" value="" style="ellipse;whiteSpace=wrap;html=1;aspect=fixed;" parent="1" vertex="1">
          <mxGeometry x="613.25" y="324.13" width="90" height="90" as="geometry" />
        </mxCell>
        <mxCell id="ItGvCnHqwmwOMa5XZKfp-40" value="U8: Pay" style="text;html=1;strokeColor=none;fillColor=none;align=center;verticalAlign=middle;whiteSpace=wrap;rounded=0;" parent="1" vertex="1">
          <mxGeometry x="619.5" y="352.5" width="77.5" height="25" as="geometry" />
        </mxCell>
        <mxCell id="ItGvCnHqwmwOMa5XZKfp-41" value="" style="ellipse;whiteSpace=wrap;html=1;aspect=fixed;" parent="1" vertex="1">
          <mxGeometry x="730" y="320" width="90" height="90" as="geometry" />
        </mxCell>
        <mxCell id="ItGvCnHqwmwOMa5XZKfp-42" value="&lt;p class=&quot;MsoNormal&quot;&gt;&lt;span style=&quot;font-family: &amp;#34;cambria&amp;#34; , &amp;#34;serif&amp;#34;&quot;&gt;U&lt;/span&gt;&lt;span dir=&quot;RTL&quot;&gt;&lt;/span&gt;&lt;span dir=&quot;RTL&quot;&gt;&lt;/span&gt;&lt;span lang=&quot;AR-SA&quot; dir=&quot;RTL&quot; style=&quot;font-family: &amp;#34;arial&amp;#34; , &amp;#34;sans-serif&amp;#34;&quot;&gt;&lt;span dir=&quot;RTL&quot;&gt;&lt;/span&gt;&lt;span dir=&quot;RTL&quot;&gt;&lt;/span&gt;9&lt;/span&gt;&lt;span dir=&quot;LTR&quot;&gt;&lt;/span&gt;&lt;span dir=&quot;LTR&quot;&gt;&lt;/span&gt;&lt;span style=&quot;font-family: &amp;#34;cambria&amp;#34; , &amp;#34;serif&amp;#34;&quot;&gt;&lt;span dir=&quot;LTR&quot;&gt;&lt;/span&gt;&lt;span dir=&quot;LTR&quot;&gt;&lt;/span&gt;: bill&lt;/span&gt;&lt;/p&gt;" style="text;html=1;strokeColor=none;fillColor=none;align=center;verticalAlign=middle;whiteSpace=wrap;rounded=0;" parent="1" vertex="1">
          <mxGeometry x="730.25" y="356.49" width="77.5" height="25" as="geometry" />
        </mxCell>
        <mxCell id="ItGvCnHqwmwOMa5XZKfp-43" value="" style="ellipse;whiteSpace=wrap;html=1;aspect=fixed;" parent="1" vertex="1">
          <mxGeometry x="733.75" y="443.25" width="90" height="90" as="geometry" />
        </mxCell>
        <mxCell id="ItGvCnHqwmwOMa5XZKfp-44" value="&lt;span style=&quot;font-size: 11.0pt ; line-height: 115% ; font-family: &amp;#34;cambria&amp;#34; , &amp;#34;serif&amp;#34;&quot;&gt;U10: print bill&lt;/span&gt;" style="text;html=1;strokeColor=none;fillColor=none;align=center;verticalAlign=middle;whiteSpace=wrap;rounded=0;" parent="1" vertex="1">
          <mxGeometry x="736.75" y="475.75" width="83.25" height="25" as="geometry" />
        </mxCell>
        <mxCell id="ItGvCnHqwmwOMa5XZKfp-50" value="" style="shape=image;html=1;verticalAlign=top;verticalLabelPosition=bottom;labelBackgroundColor=#ffffff;imageAspect=0;aspect=fixed;image=https://cdn2.iconfinder.com/data/icons/navigation-set-arrows-part-two/32/Arrow_Dotted_Left-128.png" parent="1" vertex="1">
          <mxGeometry x="357.25" y="227.25" width="32.75" height="32.75" as="geometry" />
        </mxCell>
        <mxCell id="ItGvCnHqwmwOMa5XZKfp-51" value="" style="shape=image;html=1;verticalAlign=top;verticalLabelPosition=bottom;labelBackgroundColor=#ffffff;imageAspect=0;aspect=fixed;image=https://cdn2.iconfinder.com/data/icons/navigation-set-arrows-part-two/32/Arrow_Dotted_Left-128.png" parent="1" vertex="1">
          <mxGeometry x="347.5" y="352.5" width="33.25" height="33.25" as="geometry" />
        </mxCell>
        <mxCell id="ItGvCnHqwmwOMa5XZKfp-52" value="" style="shape=image;html=1;verticalAlign=top;verticalLabelPosition=bottom;labelBackgroundColor=#ffffff;imageAspect=0;aspect=fixed;image=https://cdn2.iconfinder.com/data/icons/navigation-set-arrows-part-two/32/Arrow_Dotted_Left-128.png" parent="1" vertex="1">
          <mxGeometry x="703.25" y="356.49" width="27" height="27" as="geometry" />
        </mxCell>
        <mxCell id="ItGvCnHqwmwOMa5XZKfp-53" value="" style="shape=image;html=1;verticalAlign=top;verticalLabelPosition=bottom;labelBackgroundColor=#ffffff;imageAspect=0;aspect=fixed;image=https://cdn2.iconfinder.com/data/icons/navigation-set-arrows-part-two/32/Arrow_Dotted_Left-128.png" parent="1" vertex="1">
          <mxGeometry x="473.75" y="358.38" width="26.25" height="26.25" as="geometry" />
        </mxCell>
        <mxCell id="ItGvCnHqwmwOMa5XZKfp-54" value="" style="shape=image;html=1;verticalAlign=top;verticalLabelPosition=bottom;labelBackgroundColor=#ffffff;imageAspect=0;aspect=fixed;image=https://cdn2.iconfinder.com/data/icons/navigation-set-arrows-part-two/32/Arrow_Dotted_Left-128.png" parent="1" vertex="1">
          <mxGeometry x="590" y="358.37" width="23.25" height="23.25" as="geometry" />
        </mxCell>
        <mxCell id="ItGvCnHqwmwOMa5XZKfp-57" value="" style="shape=image;html=1;verticalAlign=top;verticalLabelPosition=bottom;labelBackgroundColor=#ffffff;imageAspect=0;aspect=fixed;image=https://cdn2.iconfinder.com/data/icons/navigation-set-arrows-part-two/32/Arrow_Dotted_Left-128.png;rotation=90;" parent="1" vertex="1">
          <mxGeometry x="762.12" y="410" width="33.25" height="33.25" as="geometry" />
        </mxCell>
        <mxCell id="ItGvCnHqwmwOMa5XZKfp-64" value="" style="ellipse;whiteSpace=wrap;html=1;aspect=fixed;" parent="1" vertex="1">
          <mxGeometry x="520" y="192.5" width="95" height="95" as="geometry" />
        </mxCell>
        <mxCell id="ItGvCnHqwmwOMa5XZKfp-65" value="extend" style="text;html=1;strokeColor=none;fillColor=none;align=center;verticalAlign=middle;whiteSpace=wrap;rounded=0;" parent="1" vertex="1">
          <mxGeometry x="353.63" y="212.5" width="40" height="20" as="geometry" />
        </mxCell>
        <mxCell id="ItGvCnHqwmwOMa5XZKfp-66" value="U4:Show Results" style="text;html=1;strokeColor=none;fillColor=none;align=center;verticalAlign=middle;whiteSpace=wrap;rounded=0;" parent="1" vertex="1">
          <mxGeometry x="525" y="222.5" width="85" height="40" as="geometry" />
        </mxCell>
        <mxCell id="ItGvCnHqwmwOMa5XZKfp-67" value="" style="shape=image;html=1;verticalAlign=top;verticalLabelPosition=bottom;labelBackgroundColor=#ffffff;imageAspect=0;aspect=fixed;image=https://cdn2.iconfinder.com/data/icons/navigation-set-arrows-part-two/32/Arrow_Dotted_Left-128.png" parent="1" vertex="1">
          <mxGeometry x="485" y="226.12" width="35" height="35" as="geometry" />
        </mxCell>
        <mxCell id="ItGvCnHqwmwOMa5XZKfp-68" value="extend" style="text;html=1;strokeColor=none;fillColor=none;align=center;verticalAlign=middle;whiteSpace=wrap;rounded=0;" parent="1" vertex="1">
          <mxGeometry x="480" y="206.25" width="40" height="32.5" as="geometry" />
        </mxCell>
        <mxCell id="ItGvCnHqwmwOMa5XZKfp-69" value="Include" style="text;html=1;strokeColor=none;fillColor=none;align=center;verticalAlign=middle;whiteSpace=wrap;rounded=0;" parent="1" vertex="1">
          <mxGeometry x="347.5" y="338.38" width="40" height="20" as="geometry" />
        </mxCell>
        <mxCell id="ItGvCnHqwmwOMa5XZKfp-70" value="extend" style="text;html=1;strokeColor=none;fillColor=none;align=center;verticalAlign=middle;whiteSpace=wrap;rounded=0;" parent="1" vertex="1">
          <mxGeometry x="473.25" y="332.13" width="40" height="32.5" as="geometry" />
        </mxCell>
        <mxCell id="ItGvCnHqwmwOMa5XZKfp-72" value="extend" style="text;html=1;strokeColor=none;fillColor=none;align=center;verticalAlign=middle;whiteSpace=wrap;rounded=0;" parent="1" vertex="1">
          <mxGeometry x="581.63" y="332.13" width="40" height="32.5" as="geometry" />
        </mxCell>
        <mxCell id="ItGvCnHqwmwOMa5XZKfp-73" value="extend" style="text;html=1;strokeColor=none;fillColor=none;align=center;verticalAlign=middle;whiteSpace=wrap;rounded=0;" parent="1" vertex="1">
          <mxGeometry x="696.75" y="332.13" width="40" height="32.5" as="geometry" />
        </mxCell>
        <mxCell id="ItGvCnHqwmwOMa5XZKfp-74" value="Include" style="text;html=1;strokeColor=none;fillColor=none;align=center;verticalAlign=middle;whiteSpace=wrap;rounded=0;" parent="1" vertex="1">
          <mxGeometry x="733.75" y="420.01" width="40" height="20" as="geometry" />
        </mxCell>
        <mxCell id="ItGvCnHqwmwOMa5XZKfp-78" value="Include" style="text;html=1;strokeColor=none;fillColor=none;align=center;verticalAlign=middle;whiteSpace=wrap;rounded=0;rotation=-30;" parent="1" vertex="1">
          <mxGeometry x="423.75" y="300" width="40" height="20" as="geometry" />
        </mxCell>
        <mxCell id="ItGvCnHqwmwOMa5XZKfp-84" value="Actor" style="shape=umlActor;verticalLabelPosition=bottom;verticalAlign=top;html=1;outlineConnect=0;" parent="1" vertex="1">
          <mxGeometry x="125" y="300" width="32.5" height="75.37" as="geometry" />
        </mxCell>
        <mxCell id="ItGvCnHqwmwOMa5XZKfp-88" value="Actor" style="shape=umlActor;verticalLabelPosition=bottom;verticalAlign=top;html=1;outlineConnect=0;" parent="1" vertex="1">
          <mxGeometry x="110" y="110" width="45" height="80" as="geometry" />
        </mxCell>
        <mxCell id="ItGvCnHqwmwOMa5XZKfp-91" value="Viewer" style="text;html=1;align=center;verticalAlign=middle;resizable=0;points=[];autosize=1;" parent="1" vertex="1">
          <mxGeometry x="107.5" y="207.5" width="50" height="20" as="geometry" />
        </mxCell>
        <mxCell id="ItGvCnHqwmwOMa5XZKfp-94" value="" style="endArrow=none;html=1;" parent="1" edge="1">
          <mxGeometry width="50" height="50" relative="1" as="geometry">
            <mxPoint x="140" y="290" as="sourcePoint" />
            <mxPoint x="140" y="233" as="targetPoint" />
            <Array as="points">
              <mxPoint x="140" y="270" />
            </Array>
          </mxGeometry>
        </mxCell>
        <mxCell id="ItGvCnHqwmwOMa5XZKfp-95" value="" style="endArrow=none;dashed=1;html=1;dashPattern=1 3;strokeWidth=2;" parent="1" edge="1">
          <mxGeometry width="50" height="50" relative="1" as="geometry">
            <mxPoint x="334" y="340" as="sourcePoint" />
            <mxPoint x="523.25" y="262.5" as="targetPoint" />
          </mxGeometry>
        </mxCell>
        <mxCell id="ItGvCnHqwmwOMa5XZKfp-99" value="" style="endArrow=classic;html=1;entryX=1;entryY=0;entryDx=0;entryDy=0;" parent="1" target="ItGvCnHqwmwOMa5XZKfp-32" edge="1">
          <mxGeometry width="50" height="50" relative="1" as="geometry">
            <mxPoint x="340" y="338.38" as="sourcePoint" />
            <mxPoint x="330" y="348.38" as="targetPoint" />
          </mxGeometry>
        </mxCell>
      </root>
    </mxGraphModel>
  </diagram>
</mxfile>
